<svg xmlns="http://www.w3.org/2000/svg" viewBox="0 0 559.8 559.8" fill="#754c68">
	<path d="M552.7 254.8c-1.2-12.1-3-24.1-5.7-36-5.9-25.8-15.3-50.3-28.4-73.4-18.7-33-43.1-61-73.3-83.9-25.2-19.1-52.9-33.5-83.1-43-22.3-7-45.1-11.2-68.4-12.3-10.9-.5-21.9-.4-32.9.3-11.6.8-23.2 2.2-34.6 4.5-30.1 6-58.5 16.6-85 32.2-17.4 10.2-33.6 22.1-48.3 36-5 4.5-20.9 21.4-22.5 23.3-17.3 20.5-31.4 43-42.2 67.5-13.5 30.7-21 62.8-22.6 96.2-.7 14.7-.4 29.4 1.3 44.1 2 17.2 5.3 34.2 10.5 50.7 15.6 49.8 43 91.8 82.4 126.1 19.3 16.8 40.5 30.6 63.7 41.4 32 15 65.7 23.4 100.9 25.3 16.1.9 32.2.5 48.3-1.5 18.4-2.3 36.5-6.3 54.1-12.2 27.8-9.3 53.4-22.8 76.9-40.4 6.5-4.9 48.8-46.6 54.3-53.9 18.8-24.9 33.1-52.1 42.7-81.8 7.2-22.5 11.6-45.6 12.7-69.2.6-13.2.5-26.6-.8-40zM451.8 120.5c.6 2.8-.2 5.4-1.1 7.9-4.8 13.7-9.7 27.4-14.1 41.2-4.5 14.2-8.5 28.7-10.7 43.5-1.9 12.9-2.2 25.8-1.3 38.8.9 13.8 4 27.3 6.6 40.8 2 10.4 2.4 20.8 1.6 31.4-1.5 18.6-6.8 36-15.4 52.5-2.7 5.1-5.9 9.9-9 14.8-3.7 4.8-7 10.1-11.3 14.4-3.7 3.8-7.6 7.5-11.6 11-11.7 10.2-24.5 18.4-38.7 24.6-15.8 6.8-32.2 10.5-49.4 11-7.1.2-14.2-.4-21.2-1.5-19.8-2.9-37.6-10.4-53.7-22.3-6.6-4.9-11.7-11.6-19.6-14.8-1.3-.5-2.4-1.4-3.6-2.2-12.4-8.2-23.2-18.3-33.2-29.4-8.5-9.4-16.4-19.4-22.8-30.4-.8-1.4-1.8-2.6-2.9-3.7-7.3-7.5-13.6-15.8-18.5-25-13.4-25.2-17.5-51.8-12.7-79.9 3.2-18.8 10.4-36 20.7-52 5-7.8 10.9-15 17.3-21.8 5-4.8 9.7-9.9 15.4-13.9 7.7-5.4 15.6-10.5 24-14.7 14.5-7.2 29.8-11.7 45.8-13.5 14.8-1.6 29.5-.1 44 3.2 18 4.2 36.3 6 54.7 5 16.4-.9 32.3-4.5 48-9.1 17.6-5.2 34.9-11.4 52.2-17.5 9.9-3.2 18.4 1.7 20.5 11.6zm64.9 181c-3.5 37.5-15.1 72.2-35 104.2-7.8 12.5-16.8 24.1-26.6 35.2-2.2 2.4-14.7 15.9-17.7 17.4-9.1 7.7-18.4 15-28.4 21.5-26.1 16.9-54.4 28.3-84.9 34.1-13.3 2.6-26.8 3.8-40.4 4-40.8.7-79.2-8.6-115.3-27.6-16.7-8.8-32.1-19.6-46.2-32.2-24.5-21.8-43.9-47.6-57.9-77.2-9.5-20-15.9-41.1-19.4-62.9-1.6-9.7-2.5-19.4-2.8-29.2-.9-1.3-.5-2.7-.4-4.1.2-4.4-.6-8.9.4-13.3 1.4-36.3 10.5-70.5 27.5-102.7 8.7-16.4 44.3-59 48.9-63.6 13.5-12 27.7-22.8 43.4-31.7C185.2 60.2 210 51 236.5 46.2c12.8-2.4 25.8-3.6 38.8-3.8 47-.8 90.4 11.3 130.3 36.1 6.8 4.2 13.4 9 19.8 13.8.8.6 1.4 1.3 2.5 2.2-4.5 1.6-8.6 3.1-12.8 4.6-6.1 2.1-12.3 4.2-18.3 6.4-1.6.6-2.8.4-4.1-.5-19.5-12.8-40.7-21.8-63.3-27.3-13.8-3.3-27.8-5.2-42-5.7-37.2-1.4-72.3 6.6-105.2 23.8-21.9 11.5-41.1 26.4-57.5 44.9-1.2 1.3-2.7 2.2-3.3 4-2.7 2.1-4.5 4.9-6.5 7.5-14.3 18.6-25.5 39-32.9 61.2-7.6 22.7-11.2 46.1-10.7 70.1.2 10.4 1 20.8 2.7 31.1 3.4 21 9.9 40.9 19.5 59.8 13.8 27.2 32.6 50.3 56.5 69.3 32.1 25.4 68.5 40 109.1 44.2 12.6 1.3 25.3 1.3 38 .2 14.9-1.2 29.3-4 43.6-8.4 14.4-4.4 28.2-10.4 41.3-17.7 8-4.4 15.5-9.5 22.7-15 5.1-3.9 10-8 14.8-12.4 5.6-5.1 11-10.4 16.1-16 7.2-7.7 13.4-16.1 19.1-25 12.7-19.6 21.9-40.8 27.4-63.6 3.3-13.5 5.1-27.3 5.7-41.2 1.5-36.7-6.2-71.4-22.8-104.1-3-5.9-6.3-11.7-10-17.3-.7-1.1-1.5-2.2-.9-3.7 3.7-10.5 7.3-21 11.1-31.8 3 2.8 4.9 5.9 7 8.8 18.1 25 31 52.5 38.4 82.5 3.2 12.7 5.1 25.7 6.2 38.8 1.1 13.1 1.1 26.4-.1 39.5z" class="st0"/>
	<path d="M78.8 95.9c-.4 1.5-1-1.6.1-2.3-.1.7.1 1.6-.1 2.3zm223.6 68.3c-.3 1.4-1.5 1.5-2.3 1.9-13.6 6.4-27.2 13-40.5 20.1-17.5 9.3-34.7 19.1-50.3 31.3-16.5 12.9-29.8 28.6-40.4 46.6-8.5 14.3-14.5 29.5-17.7 45.8-.2 1 .1 2.1-1 3.3-3.9-6-6.7-12.3-8.9-18.9-3.6-10.8-5.1-22-4.4-33.4 1.3-21.6 8.4-41.2 21.4-58.6 16.8-22.5 38.8-37.4 66.3-43.8 14.7-3.5 29.5-3.2 44.2.3 11 2.7 22.2 4.3 33.6 5.4zm92.9 189.5C383.8 380.3 365 400 339 412.6c-11.5 5.6-23.7 8.9-36.5 10-19.2 1.7-37.2-2.1-54-11.8-.6-.3-1.3-.5-1.7-1.6 5.1-1.1 10.1-2.1 14.9-3.5 19.4-5.6 36.6-15.2 52.6-27.4 20.1-15.2 34.6-35 47.2-56.5 11.8-20 22.2-40.8 32-61.8.5-1 .7-2.1 1.9-3 .6 4.7 1.2 9.2 1.8 13.6 1 7.8 2.6 15.5 4.3 23.2 4.5 20.7 2 40.7-6.2 59.9zM408.9 151c-7.4 18.5-14.9 36.3-22.6 54-9.9 22.6-20.3 45-31.6 66.9-9.8 19-20.1 37.7-32 55.5-11.3 16.8-26.3 29.4-43.7 39.4-11.5 6.6-23.8 11.4-37 13.5-13.1 2.1-26 1.6-38.2-4.2-1.4-.6-2.6-1.5-3.6-2.5-3.5-3.5-6.8-7.2-10.5-10.4-6.6-5.7-8.9-13.3-10.2-21.3-2.9-18.3 1.5-35.4 9.1-51.9 7.7-16.6 18.3-31.1 31.8-43.3 8.7-7.8 18.6-13.9 28.7-19.9 34.1-20.3 69.8-37.3 106-53.2 16.9-7.4 33.9-14.5 51-21.5.8-.4 1.6-.7 2.8-1.1zM42 271.5v17.3c-.9-1.3-.5-2.7-.4-4.1.1-4.4-.7-8.8.4-13.2z" class="st0"/>
</svg>
