<svg xmlns="http://www.w3.org/2000/svg" viewBox="60 38 140 182">
    <path fill="#fde16c" d="M81 44h113v119.1H81z"/>
    <path d="M200.1 41.8c0-3.1-.7-3.8-3.8-3.8H71c-6.1 2.1-10.2 6.3-13 12v135c3.8 9.9 11.9 12.9 21.6 13 12.5.1 24.9.1 37.4-.1 3.3 0 4.2.9 4.1 4.1-.3 6-.1 12-.1 18h2c4.3-4.1 9.8-6.4 14.9-9.5.8-.5 1.4-.5 2.2 0 5 3.2 10 6.3 14.9 9.5h1c0-6.2.1-12.3-.1-18.5-.1-2.8.7-3.7 3.6-3.6 9.3.2 18.6-.1 27.9.1 3.5.1 4.8-1 4.6-4.6-.2-5.1.2-10.3-.2-15.4-.3-4.2.9-5.8 5.1-5.1 1 .2 2 0 3 0 .1-43.7.1-87.4.2-131.1zm-19 135.7c-.2 9.5 0 9.5-9.3 9.5-4.2 0-8.3-.1-12.5 0-2.6.1-3.7-.8-3.3-3.4.4-2.7-.6-3.8-3.5-3.7-9.3.2-18.6.2-27.9 0-2.9 0-3.9 1-3.5 3.7.4 2.6-.7 3.4-3.3 3.4-14-.1-27.9 0-41.9-.1-4.2 0-7.6-3.3-7.7-6.8-.1-3.7 3.5-7.1 8-7.1 17-.1 33.9 0 50.9 0 16.5 0 32.9.1 49.4-.1 3.4 0 4.7.7 4.6 4.6zM190 106c0 17.6-.1 35.3.1 53 0 3.3-.9 4.1-4.1 4.1-31.3-.1-62.6-.1-93.9 0-3.3 0-4.1-.9-4.1-4.1 0-35.7 0-71.3-.1-107 0-3.3.9-4.1 4.1-4.1 31.3.1 62.6.1 93.9 0 3.3 0 4.1.9 4.1 4.1-.1 18 0 36 0 54z" class="st1"/>
    <path fill="#fefefe" d="M71 38c-3.2 1.1-5.9 2.8-8.1 5-2 2-3.6 4.3-4.9 7 1.3-4 5.8-9.1 12-12 .3-.1.7 0 1 0z"/>
    <path fill="#f6bf43" d="M126.9 173c16.5 0 32.9.1 49.4-.1 3.6 0 4.9.7 4.8 4.6-.2 9.5 0 9.5-9.3 9.5-4.2 0-8.3-.1-12.5 0-2.6.1-3.7-.8-3.3-3.4.4-2.7-.6-3.8-3.5-3.7-9.3.2-18.6.2-27.9 0-2.9-.1-3.9 1-3.5 3.7.4 2.6-.7 3.4-3.3 3.4-14-.1-28 0-41.9-.1-4.2 0-7.6-3.3-7.7-6.8-.1-3.7 3.5-7.1 8-7.1h50.7z"/>
    <path d="M182.7 106.9c-.2 3.8-.9 7.5-2 11-1.5 4.7-3.8 9.1-6.8 13.1-.9 1.2-1.8 2.3-2.8 3.3 0-.2-.1-.4-.2-.5l-3.3-3.3c-.1-.1-.3-.3-.5-.3 1.6-1.8 3-3.6 4.2-5.6 3.2-5.1 5-10.7 5.6-16.7.2-2.1.2-4.2 0-6.3-.2-2.1-.5-4.2-1-6.2-1.2-4.8-3.2-9.2-6.1-13.2-.3-.5-.7-1-1.1-1.4l-1.8 5.1c-.1.2 0 .4.2.6.6.9 1.1 1.8 1.6 2.8 2.7 5.2 3.9 10.8 3.6 16.6-.1 2.2-.4 4.4-.9 6.6-.9 3.6-2.3 7-4.4 10.2-.9 1.4-1.9 2.8-3.1 4 0-.3-.3-.4-.5-.5l-3.5-3.5c-.1-.1-.2-.3-.4-.3.5-.8 1-1.5 1.4-2.4 1.4-2.6 2.2-5.4 2.5-8.4.1-1.7.1-3.4-.2-5-.4-2.2-.9-4.3-1.1-6.5-.1-2.1-.1-4.1.2-6.2.4-2.4 1-4.7 1.7-6.9s1.5-4.4 2.2-6.6c.1-.4.3-.8.2-1.3-.3-1.6-1.7-2.4-3.2-1.8-2.8 1-5.5 2-8.3 2.8-2.5.7-5.1 1.3-7.7 1.5-2.9.2-5.9-.1-8.7-.8-2.3-.5-4.7-.8-7-.5-2.6.3-5 1-7.3 2.2-1.4.7-2.6 1.5-3.8 2.4-.9.6-1.7 1.4-2.5 2.2-.1 0-.2-.1-.3-.2-1.3-1.3-2.6-2.5-3.9-3.8.1-.3.3-.4.5-.6 2.6-3 5.7-5.3 9.2-7.2 5.3-2.8 10.9-4 16.8-3.8 2.3.1 4.5.4 6.7.9 3.6.9 7 2.3 10.1 4.4.2.1.4.2.7.1 1-.4 2-.7 2.9-1 .7-.2 1.3-.5 2-.7-.2-.1-.3-.3-.4-.3-1-.8-2.1-1.5-3.2-2.2-6.4-4-13.3-5.9-20.8-5.8-2.1 0-4.2.2-6.2.6-4.2.8-8.2 2.2-11.9 4.4-2.5 1.4-4.8 3.2-6.9 5.1 0-.3-.1-.5-.3-.7-1.1-1-2.1-2.1-3.2-3.1-.2-.2-.3-.3-.6-.3 2.3-2.2 4.9-4.1 7.7-5.8 4.2-2.5 8.8-4.2 13.6-5.1 1.8-.4 3.7-.6 5.5-.7 1.8-.1 3.5-.1 5.3 0 3.7.2 7.4.8 10.9 2 4.8 1.5 9.2 3.8 13.3 6.9 4.8 3.7 8.7 8.1 11.7 13.4 2.1 3.7 3.6 7.6 4.5 11.7.4 1.9.7 3.8.9 5.7.3 1.6.4 3.7.2 5.9z" class="st1"/>
    <path d="M171.1 134.3c-.2.3-.5.5-.7.8-.6 0-.8.2-.8.8l-.9.9c-.4-.2-.4 0-.4.4-.9.9-2 1.7-3 2.5-3.7 2.8-7.8 5-12.3 6.5-2.8.9-5.7 1.6-8.6 2-2.6.3-5.1.4-7.7.2-5.6-.3-11-1.6-16.1-4-3.7-1.7-7.1-3.9-10.2-6.6-6.3-5.5-10.7-12.2-13.2-20.2-.8-2.6-1.4-5.4-1.7-8.1-.3-2.3-.3-4.7-.2-7 .3-5.3 1.5-10.5 3.6-15.4 1.7-3.9 4-7.5 6.7-10.8.3-.3.5-.6.8-.9l.1-.1c.2.2.3.2.4-.1v-.4c.7-.8 1.5-1.6 2.3-2.3.2 0 .4.1.6.3 1 1.1 2.1 2.1 3.2 3.1.2.2.3.4.3.7-.7.7-1.4 1.5-2.2 2.2-.5 0-.5 0-.5.6l-.1.1c-2 2.2-3.6 4.6-5 7.3-2.7 5.1-4.2 10.6-4.4 16.4-.2.7 0 1.4-.1 2.1 0 .2-.1.4.1.6 0 1.6.2 3.1.5 4.7.6 3.5 1.6 6.8 3.1 10.1 2.2 4.7 5.3 8.9 9.2 12.3 2.3 2 4.7 3.7 7.4 5.1 5.8 3 11.9 4.5 18.4 4.4 2.2 0 4.3-.2 6.5-.6 4.9-.9 9.4-2.7 13.6-5.4 1.6-1 3.1-2.2 4.5-3.4.5.1.5.1.5-.4.3-.3.6-.6 1-.9.1.2.3.1.4 0 .1-.1.2-.3 0-.4.3-.4.6-.7.9-1 .2 0 .4.1.5.3l3.3 3.3c.1-.1.2.1.2.3z" class="st1"/>
    <path d="M170.3 135.1l-.8.8c.1-.6.3-.8.8-.8zm-63.4-60c-.1.2-.2.3-.4.1.1-.2.2-.3.4-.4v.3zm61.7 61.6c-.1.2-.3.2-.4.4 0-.3.1-.5.4-.4zm-62.1-61.5l-.1.1c0-.1.1-.1.1-.1zm57.4 51.4c-.8.9-1.7 1.7-2.6 2.6-.8.7-1.6 1.4-2.4 2-1.2.9-2.4 1.7-3.6 2.4-2.1 1.2-4.3 2.1-6.6 2.8-2.3.7-4.6 1.1-7 1.3-2 .2-4.1.2-6.1 0-6.5-.7-12.3-3-17.4-7.1-3.8-3-6.8-6.7-9-11.1-1.5-3-2.6-6.2-3.1-9.6-.3-1.6-.4-3.3-.4-5-.1-3.8.5-7.6 1.7-11.2 1.2-3.6 3-6.8 5.3-9.8.3-.4.6-.9 1-1.2 1.3 1.3 2.6 2.5 3.9 3.8.1.1.2.1.3.2-1 1.1-2 2.2-2.8 3.5-1.6 2.6-2.8 5.3-3.3 8.3-.8 4.5-.1 8.7 2 12.8.8 1.5 1.8 2.8 3 4 .2.2.3.4.5.6 1 1.8 2.3 3.4 3.6 4.9 1.6 1.8 3.3 3.4 5.3 4.7.2.1.4.3.6.3 1.3.5 2.1 1.6 3.1 2.4 2.6 1.9 5.4 3.1 8.6 3.6 1.1.2 2.2.3 3.4.2 2.7-.1 5.4-.7 7.9-1.8 2.3-1 4.3-2.3 6.2-3.9.6-.6 1.3-1.2 1.9-1.8.7-.7 1.2-1.5 1.8-2.3.2 0 .3.2.4.3l3.5 3.5c0 .2.3.3.3.6zM101 103.1v2.8c-.2-.2-.1-.4-.1-.6.1-.8-.1-1.5.1-2.2zm10.1-24.4c-.2.2-.3.4-.5.6-.1-.6-.1-.6.5-.6zm55 52.9c-.1.1-.2.2-.4 0l.4-.4c.2.1.1.3 0 .4zm-1.9 1.4c.2-.1.3-.3.5-.4 0 .5 0 .5-.5.4z" class="st1"/>
    <path d="M159.7 83.9c-1.2 2.9-2.4 5.8-3.6 8.6-1.6 3.6-3.2 7.2-5.1 10.7-1.6 3-3.2 6-5.1 8.9-1.8 2.7-4.2 4.7-7 6.3-1.8 1.1-3.8 1.8-5.9 2.2-2.1.3-4.2.3-6.1-.7-.2-.1-.4-.2-.6-.4l-1.7-1.7c-1-.9-1.4-2.1-1.6-3.4-.5-2.9.2-5.7 1.5-8.3 1.2-2.6 2.9-5 5.1-6.9 1.4-1.3 3-2.2 4.6-3.2 5.4-3.2 11.1-6 16.9-8.5 2.7-1.2 5.4-2.3 8.2-3.4 0-.1.2-.2.4-.2zM142.6 86c0 .2-.2.2-.4.3-2.2 1-4.3 2.1-6.5 3.2-2.8 1.5-5.5 3.1-8 5-2.6 2.1-4.8 4.6-6.5 7.4-1.4 2.3-2.3 4.7-2.8 7.3 0 .2 0 .3-.2.5-.6-1-1.1-2-1.4-3-.6-1.7-.8-3.5-.7-5.3.2-3.5 1.3-6.6 3.4-9.4 2.7-3.6 6.2-6 10.6-7 2.4-.6 4.7-.5 7.1 0 1.8.5 3.6.8 5.4 1z" class="st1"/>
    <path d="M157.5 116.3c-1.8 4.2-4.8 7.4-9 9.4-1.8.9-3.8 1.4-5.8 1.6-3.1.3-5.9-.3-8.6-1.9-.1-.1-.2-.1-.3-.3.8-.2 1.6-.3 2.4-.6 3.1-.9 5.8-2.4 8.4-4.4 3.2-2.4 5.5-5.6 7.5-9 1.9-3.2 3.5-6.5 5.1-9.9.1-.2.1-.3.3-.5.1.8.2 1.5.3 2.2.2 1.2.4 2.5.7 3.7.7 3.4.3 6.6-1 9.7z" class="st1"/>
</svg>
